<svg width="2412" height="542" viewBox="0 0 2412 542" fill="none" xmlns="http://www.w3.org/2000/svg">
<path d="M166.167 226.7C166.167 224.226 165.214 222.035 163.311 220.133L149.034 205.857C147.131 203.954 144.941 203 142.467 203C139.993 203 137.802 203.955 135.9 205.857L2.856 338.901C0.95 340.804 0 342.994 0 345.468C0 347.942 0.953 350.132 2.856 352.034L135.899 485.078C137.801 486.984 139.988 487.932 142.466 487.932C144.944 487.932 147.131 486.981 149.033 485.078L163.31 470.81C165.213 468.908 166.166 466.717 166.166 464.24C166.166 461.769 165.213 459.579 163.31 457.677L51.107 345.468L163.311 233.267C165.217 231.365 166.167 229.174 166.167 226.7Z" fill="white"/>
<path d="M331.77 154.288L314.064 149.434C311.785 148.674 309.54 148.913 307.357 150.149C305.167 151.386 303.688 153.243 302.928 155.717L196.434 524.305C195.674 526.78 195.912 529.114 197.149 531.3C198.386 533.49 200.239 534.965 202.717 535.725L220.418 540.581C222.702 541.347 224.939 541.107 227.128 539.869C229.318 538.626 230.794 536.775 231.553 534.305L338.05 165.711C338.809 163.237 338.573 160.903 337.334 158.712C336.096 156.522 334.245 155.047 331.77 154.288Z" fill="white"/>
<path d="M841.302 338.901L708.255 205.857C706.353 203.955 704.162 203 701.692 203C699.214 203 697.031 203.955 695.122 205.857L680.851 220.132C678.949 222.035 678 224.222 678 226.699C678 229.176 678.948 231.364 680.851 233.266L793.057 345.47L680.851 457.68C678.949 459.582 678 461.773 678 464.243C678 466.721 678.948 468.911 680.851 470.813L695.122 485.081C697.031 486.987 699.215 487.935 701.692 487.935C704.163 487.935 706.353 486.984 708.255 485.081L841.302 352.038C843.205 350.136 844.156 347.942 844.156 345.468C844.156 342.993 843.205 340.803 841.302 338.901Z" fill="white"/>
<g clip-path="url(#clip0)">
<path d="M635.5 278C632.925 278 630.525 276.413 629.612 273.838C615.5 234.163 577.675 207.5 535.5 207.5C508.8 207.5 483.687 217.912 464.8 236.8C462.925 238.675 461.05 240.65 459.3 242.763C457.087 245.425 453.138 245.763 450.488 243.55C447.838 241.338 447.487 237.4 449.7 234.75C451.7 232.35 453.837 230.075 455.975 227.962C477.212 206.712 505.462 195 535.5 195C582.962 195 625.512 225 641.387 269.663C642.55 272.913 640.85 276.488 637.6 277.65C636.9 277.888 636.2 278 635.5 278V278Z" fill="#E7CF56"/>
<path d="M604.25 495H491.75C488.3 495 485.5 492.2 485.5 488.75V447.187L455.325 456.363C453.288 457.088 450.737 457.5 448 457.5C434.212 457.5 423 446.288 423 432.5V395H398C390.988 395 385.5 389.512 385.5 382.5C385.5 380.15 386.162 377.9 387.437 375.825L405.087 347.912C406.937 344.987 410.812 344.125 413.712 345.975C416.625 347.813 417.5 351.675 415.65 354.588L398.025 382.462L429.25 382.5C432.7 382.5 435.5 385.3 435.5 388.75V432.5C435.5 439.387 441.1 445 448 445C449.3 445 450.45 444.825 451.412 444.487L489.925 432.762C491.825 432.212 493.887 432.55 495.462 433.725C497.062 434.9 498 436.775 498 438.75V482.5H598V425.875C598 404.075 604.65 383 617.25 364.925C629.2 348.087 635.5 328.25 635.5 307.5C635.5 304.05 638.3 301.25 641.75 301.25C645.2 301.25 648 304.05 648 307.5C648 330.85 640.912 353.2 627.475 372.112C616.387 388.037 610.5 406.65 610.5 425.875V488.75C610.5 492.2 607.7 495 604.25 495Z" fill="#E7CF56"/>
<path d="M479.25 357.5H379.25C362.013 357.5 348 343.475 348 326.25V263.75C348 246.525 362.013 232.5 379.25 232.5H479.25C489.588 232.5 498 240.912 498 251.25V270C498 273.45 495.2 276.25 491.75 276.25C488.3 276.25 485.5 273.45 485.5 270V251.25C485.5 247.8 482.688 245 479.25 245H379.25C368.912 245 360.5 253.412 360.5 263.75V326.25C360.5 336.588 368.912 345 379.25 345H479.25C482.688 345 485.5 342.2 485.5 338.75V320C485.5 316.55 488.3 313.75 491.75 313.75C495.2 313.75 498 316.55 498 320V338.75C498 349.088 489.588 357.5 479.25 357.5Z" fill="#E7CF56"/>
<path d="M629.25 326.25H454.25C443.912 326.25 435.5 317.838 435.5 307.5V282.5C435.5 272.162 443.912 263.75 454.25 263.75H629.25C639.588 263.75 648 272.162 648 282.5V307.5C648 317.838 639.588 326.25 629.25 326.25ZM454.25 276.25C450.812 276.25 448 279.05 448 282.5V307.5C448 310.95 450.812 313.75 454.25 313.75H629.25C632.688 313.75 635.5 310.95 635.5 307.5V282.5C635.5 279.05 632.688 276.25 629.25 276.25H454.25Z" fill="#E7CF56"/>
<path d="M391.75 357.5C388.3 357.5 385.5 354.7 385.5 351.25V238.75C385.5 235.3 388.3 232.5 391.75 232.5C395.2 232.5 398 235.3 398 238.75V351.25C398 354.7 395.2 357.5 391.75 357.5Z" fill="#E7CF56"/>
</g>
<path d="M834.75 11.0029C832.553 11.0029 829.989 11.4505 827.06 12.3457C824.13 13.2409 821.119 14.9499 818.026 17.4727C815.015 19.9141 812.045 23.3727 809.115 27.8486C806.186 32.3245 803.541 38.1432 801.181 45.3047C798.902 52.3848 797.03 61.0111 795.565 71.1836C794.182 81.3561 793.49 93.3597 793.49 107.194C793.49 120.378 794.182 131.812 795.565 141.496C797.03 151.18 798.943 159.44 801.303 166.276C803.744 173.031 806.511 178.565 809.604 182.878C812.696 187.191 815.951 190.528 819.369 192.888C822.787 195.329 826.205 196.997 829.623 197.893C833.041 198.788 836.256 199.235 839.267 199.235C842.44 199.235 845.655 198.828 848.91 198.015C852.165 197.201 855.339 196.021 858.432 194.475C861.605 192.928 864.617 191.057 867.465 188.859C870.395 186.662 873.08 184.139 875.521 181.291L881.015 186.784C878.573 189.795 875.644 192.847 872.226 195.939C868.808 199.113 864.82 201.962 860.263 204.484C855.787 207.089 850.741 209.204 845.126 210.832C839.511 212.46 833.285 213.273 826.449 213.273C815.788 213.273 805.86 211.239 796.664 207.17C787.549 203.101 779.574 196.753 772.738 188.127C765.984 179.582 760.653 168.596 756.747 155.168C752.922 141.74 751.01 125.668 751.01 106.95C751.01 89.3721 753.044 73.9505 757.113 60.6855C761.182 47.4206 766.716 36.3529 773.715 27.4824C780.714 18.5306 788.933 11.8167 798.373 7.34082C807.813 2.78353 817.864 0.504883 828.524 0.504883C835.604 0.504883 842.034 1.19661 847.812 2.58008C853.671 3.88216 858.716 5.83529 862.948 8.43945C867.18 10.9622 870.435 14.1361 872.714 17.9609C875.074 21.7044 876.254 25.9769 876.254 30.7783C876.254 32.9756 875.888 35.2949 875.155 37.7363C874.423 40.0964 873.284 42.2936 871.737 44.3281C870.272 46.2812 868.441 47.9089 866.244 49.2109C864.047 50.4316 861.483 51.042 858.554 51.042C855.95 51.042 853.915 50.4723 852.45 49.333C851.067 48.1937 850.009 46.6882 849.276 44.8164C848.625 42.9447 848.178 40.8288 847.934 38.4688C847.771 36.0273 847.649 33.5452 847.567 31.0225C847.486 28.4997 847.283 26.0583 846.957 23.6982C846.713 21.2568 846.143 19.1003 845.248 17.2285C844.434 15.3568 843.214 13.8512 841.586 12.7119C839.958 11.5726 837.68 11.0029 834.75 11.0029ZM879.55 120.5C879.55 109.839 881.096 100.521 884.188 92.5459C887.281 84.4893 891.391 77.7754 896.518 72.4043C901.726 67.0332 907.748 63.0049 914.584 60.3193C921.42 57.6338 928.581 56.291 936.068 56.291C943.555 56.291 950.717 57.5524 957.553 60.0752C964.389 62.5166 970.37 66.3008 975.497 71.4277C980.705 76.5547 984.856 83.0651 987.948 90.959C991.041 98.7715 992.587 108.049 992.587 118.791C992.587 129.452 991.041 138.892 987.948 147.111C984.856 155.331 980.705 162.248 975.497 167.863C970.37 173.479 964.389 177.751 957.553 180.681C950.717 183.529 943.555 184.953 936.068 184.953C928.581 184.953 921.42 183.61 914.584 180.925C907.748 178.158 901.726 174.089 896.518 168.718C891.391 163.347 887.281 156.633 884.188 148.576C881.096 140.52 879.55 131.161 879.55 120.5ZM954.623 119.279C954.623 112.769 954.379 106.503 953.891 100.48C953.484 94.377 952.629 88.9652 951.327 84.2451C950.025 79.5251 948.153 75.7816 945.712 73.0146C943.271 70.1663 940.056 68.7422 936.068 68.7422C932.081 68.7422 928.866 70.2477 926.425 73.2588C923.983 76.1885 922.112 80.0947 920.81 84.9775C919.507 89.779 918.653 95.2721 918.246 101.457C917.839 107.642 917.636 113.99 917.636 120.5C917.636 127.01 917.839 133.399 918.246 139.665C918.653 145.85 919.507 151.384 920.81 156.267C922.112 161.149 923.983 165.096 926.425 168.107C928.866 171.037 932.081 172.502 936.068 172.502C940.056 172.502 943.271 170.956 945.712 167.863C948.153 164.771 950.025 160.702 951.327 155.656C952.629 150.611 953.484 144.914 953.891 138.566C954.379 132.219 954.623 125.79 954.623 119.279ZM1087.31 122.209C1087.31 111.955 1086.83 103.776 1085.85 97.6729C1084.95 91.488 1083.73 86.8086 1082.19 83.6348C1080.64 80.3796 1078.93 78.2637 1077.06 77.2871C1075.19 76.2292 1073.28 75.7002 1071.32 75.7002C1068.96 75.7002 1066.85 76.3512 1064.97 77.6533C1063.18 78.874 1061.6 80.2982 1060.21 81.9258C1058.91 83.5534 1057.77 85.181 1056.8 86.8086C1055.9 88.4362 1055.13 89.6569 1054.48 90.4707V172.014C1054.48 173.072 1054.31 174.374 1053.99 175.92C1053.66 177.385 1052.85 178.809 1051.55 180.192C1050.33 181.494 1048.45 182.593 1045.93 183.488C1043.49 184.465 1040.11 184.953 1035.8 184.953C1031.49 184.953 1028.07 184.424 1025.55 183.366C1023.1 182.39 1021.23 181.21 1019.93 179.826C1018.63 178.443 1017.81 177.019 1017.49 175.554C1017.16 174.089 1017 172.909 1017 172.014V77.7754C1017 75.4154 1016.43 73.3809 1015.29 71.6719C1014.23 69.8815 1012.4 68.9863 1009.8 68.9863C1008.42 68.9863 1007.24 69.2305 1006.26 69.7188C1005.28 70.207 1004.22 70.8988 1003.08 71.7939L1000.52 68.7422C1002.39 67.196 1004.47 65.6904 1006.75 64.2256C1009.11 62.6794 1011.63 61.3366 1014.32 60.1973C1017 59.0579 1019.89 58.1221 1022.98 57.3896C1026.07 56.6572 1029.33 56.291 1032.75 56.291C1038.04 56.291 1042.15 57.1862 1045.08 58.9766C1048.01 60.6855 1050.16 62.7607 1051.55 65.2021C1052.93 67.6436 1053.74 70.207 1053.99 72.8926C1054.31 75.4967 1054.48 77.694 1054.48 79.4844C1057.49 75.1712 1060.91 71.3057 1064.73 67.8877C1066.28 66.4229 1067.99 64.9987 1069.86 63.6152C1071.81 62.2318 1073.85 61.0111 1075.96 59.9531C1078.16 58.8138 1080.44 57.9186 1082.8 57.2676C1085.24 56.6165 1087.72 56.291 1090.24 56.291C1095.78 56.291 1100.66 57.349 1104.89 59.4648C1109.2 61.5807 1112.83 65.1208 1115.76 70.085C1118.69 75.0492 1120.92 81.641 1122.47 89.8604C1124.02 97.9984 1124.79 108.13 1124.79 120.256C1124.79 132.056 1123.73 142.31 1121.62 151.018C1119.5 159.725 1116.73 167.131 1113.31 173.234C1109.9 179.338 1106.03 184.302 1101.72 188.127C1097.4 192.033 1093.05 195.085 1088.66 197.282C1084.26 199.479 1080.03 200.985 1075.96 201.799C1071.97 202.694 1068.51 203.182 1065.58 203.264L1064.24 198.259C1066.68 197.689 1068.92 196.794 1070.96 195.573C1073.07 194.353 1074.98 192.562 1076.69 190.202C1078.4 187.842 1079.91 184.872 1081.21 181.291C1082.51 177.629 1083.61 173.072 1084.51 167.619C1085.48 162.167 1086.17 155.738 1086.58 148.332C1087.07 140.845 1087.31 132.137 1087.31 122.209ZM1227.57 98.5273C1225.05 98.5273 1222.93 98.1611 1221.22 97.4287C1219.52 96.6149 1218.13 95.557 1217.07 94.2549C1216.02 92.9528 1215.24 91.5286 1214.75 89.9824C1214.27 88.3548 1214.02 86.6865 1214.02 84.9775C1214.02 82.7803 1214.14 80.6644 1214.39 78.6299C1214.71 76.5954 1214.75 74.7643 1214.51 73.1367C1214.35 71.5091 1213.74 70.207 1212.68 69.2305C1211.62 68.2539 1209.75 67.7656 1207.06 67.7656C1204.22 67.7656 1201.21 68.5794 1198.03 70.207C1194.86 71.8346 1191.97 74.3981 1189.36 77.8975C1186.76 81.3968 1184.6 85.9134 1182.89 91.4473C1181.19 96.8997 1180.33 103.492 1180.33 111.223C1180.33 119.768 1181.1 127.58 1182.65 134.66C1184.28 141.659 1186.68 147.64 1189.85 152.604C1193.03 157.569 1196.97 161.434 1201.69 164.201C1206.41 166.887 1211.95 168.229 1218.29 168.229C1221.14 168.229 1223.83 167.904 1226.35 167.253C1228.96 166.602 1231.4 165.707 1233.68 164.567C1235.95 163.428 1238.11 162.126 1240.15 160.661C1242.26 159.115 1244.3 157.487 1246.25 155.778L1249.3 158.708C1247.43 161.231 1245.03 163.998 1242.1 167.009C1239.17 170.02 1235.63 172.868 1231.48 175.554C1227.33 178.158 1222.49 180.355 1216.95 182.146C1211.42 183.854 1205.11 184.709 1198.03 184.709C1190.95 184.709 1184.03 183.366 1177.28 180.681C1170.61 177.914 1164.67 173.926 1159.46 168.718C1154.25 163.509 1150.06 157.202 1146.88 149.797C1143.79 142.31 1142.25 133.806 1142.25 124.284C1142.25 116.879 1143.18 110.083 1145.05 103.898C1146.92 97.6322 1149.45 91.9762 1152.62 86.9307C1155.88 81.8851 1159.62 77.4499 1163.85 73.625C1168.16 69.8001 1172.68 66.6263 1177.4 64.1035C1182.12 61.4993 1186.92 59.5462 1191.81 58.2441C1196.77 56.9421 1201.53 56.291 1206.09 56.291C1212.11 56.291 1217.36 56.9827 1221.83 58.3662C1226.31 59.7497 1230.01 61.5807 1232.94 63.8594C1235.95 66.138 1238.19 68.7829 1239.66 71.7939C1241.12 74.7236 1241.85 77.7754 1241.85 80.9492C1241.85 83.3092 1241.53 85.5879 1240.88 87.7852C1240.31 89.901 1239.41 91.7728 1238.19 93.4004C1237.05 94.9466 1235.59 96.208 1233.8 97.1846C1232.01 98.0798 1229.93 98.5273 1227.57 98.5273ZM1297.27 126.97C1297.27 129.574 1297.64 132.422 1298.37 135.515C1299.19 138.526 1300.33 141.577 1301.79 144.67C1303.26 147.762 1305.05 150.733 1307.16 153.581C1309.36 156.348 1311.84 158.83 1314.61 161.027C1317.46 163.225 1320.59 164.974 1324.01 166.276C1327.43 167.578 1331.17 168.229 1335.24 168.229C1338.09 168.229 1340.73 167.904 1343.17 167.253C1345.61 166.602 1347.89 165.707 1350.01 164.567C1352.12 163.428 1354.16 162.126 1356.11 160.661C1358.07 159.115 1360.02 157.487 1361.97 155.778L1365.02 158.708C1363.15 161.231 1360.75 163.998 1357.82 167.009C1354.89 170.02 1351.35 172.868 1347.2 175.554C1343.05 178.158 1338.21 180.355 1332.67 182.146C1327.14 183.854 1320.83 184.709 1313.75 184.709C1306.67 184.709 1299.76 183.448 1293 180.925C1286.33 178.321 1280.39 174.455 1275.18 169.328C1269.97 164.201 1265.78 157.813 1262.61 150.163C1259.51 142.513 1257.97 133.562 1257.97 123.308C1257.97 115.902 1258.9 109.107 1260.78 102.922C1262.65 96.737 1265.17 91.1624 1268.34 86.1982C1271.6 81.234 1275.34 76.8802 1279.57 73.1367C1283.89 69.3932 1288.4 66.3008 1293.12 63.8594C1297.84 61.3366 1302.65 59.4648 1307.53 58.2441C1312.49 56.9421 1317.25 56.291 1321.81 56.291C1327.83 56.291 1333.08 56.9421 1337.56 58.2441C1342.03 59.5462 1345.74 61.2959 1348.67 63.4932C1351.68 65.6904 1353.92 68.2539 1355.38 71.1836C1356.84 74.0319 1357.58 77.043 1357.58 80.2168C1357.58 84.0417 1356.48 87.5003 1354.28 90.5928C1352.08 93.6038 1349.15 96.2487 1345.49 98.5273L1297.27 126.97ZM1321.81 102.189C1322.87 101.538 1323.72 100.928 1324.37 100.358C1325.11 99.7074 1325.68 98.9749 1326.08 98.1611C1326.49 97.266 1326.77 96.208 1326.94 94.9873C1327.18 93.6852 1327.3 92.0983 1327.3 90.2266C1327.3 88.1921 1327.06 85.9541 1326.57 83.5127C1326.16 80.9899 1325.43 78.6299 1324.37 76.4326C1323.32 74.2354 1321.97 72.4043 1320.35 70.9395C1318.72 69.4746 1316.76 68.7422 1314.49 68.7422C1311.56 68.7422 1309.03 69.6374 1306.92 71.4277C1304.88 73.1367 1303.17 75.3747 1301.79 78.1416C1300.49 80.9085 1299.43 84.0824 1298.62 87.6631C1297.88 91.1624 1297.32 94.7025 1296.91 98.2832C1296.5 101.864 1296.26 105.323 1296.18 108.659C1296.09 111.914 1296.05 114.681 1296.05 116.96L1321.81 102.189ZM1382.97 77.7754C1382.97 75.4154 1382.4 73.3809 1381.26 71.6719C1380.2 69.8815 1378.37 68.9863 1375.77 68.9863C1374.38 68.9863 1373.2 69.2305 1372.23 69.7188C1371.25 70.207 1370.19 70.8988 1369.05 71.7939L1366.49 68.7422C1368.36 67.196 1370.44 65.6904 1372.71 64.2256C1375.07 62.6794 1377.6 61.3366 1380.28 60.1973C1382.97 59.0579 1385.86 58.1221 1388.95 57.3896C1392.04 56.6572 1395.3 56.291 1398.71 56.291C1402.38 56.291 1405.51 56.8607 1408.11 58C1410.72 59.1393 1412.88 60.5228 1414.58 62.1504C1416.37 63.6966 1417.72 65.3649 1418.61 67.1553C1419.51 68.8643 1420.04 70.3291 1420.2 71.5498C1421.83 69.2712 1423.74 67.196 1425.94 65.3242C1428.22 63.4525 1430.66 61.8656 1433.26 60.5635C1435.95 59.18 1438.75 58.1221 1441.68 57.3896C1444.69 56.6572 1447.79 56.291 1450.96 56.291C1457.47 56.291 1463.37 57.6338 1468.66 60.3193C1473.95 63.0049 1478.47 66.9925 1482.21 72.2822C1486.04 77.5719 1488.97 84.123 1491 91.9355C1493.03 99.748 1494.05 108.781 1494.05 119.035C1494.05 130.917 1492.79 141.049 1490.27 149.431C1487.83 157.731 1484.57 164.527 1480.5 169.816C1476.51 175.106 1471.92 178.972 1466.71 181.413C1461.58 183.773 1456.33 184.953 1450.96 184.953C1446.49 184.953 1442.54 184.506 1439.12 183.61C1435.78 182.715 1432.89 181.617 1430.45 180.314C1428.01 179.012 1425.98 177.71 1424.35 176.408C1422.72 175.025 1421.42 173.885 1420.44 172.99V232.561C1420.44 233.618 1420.28 234.88 1419.96 236.345C1419.63 237.81 1418.82 239.193 1417.51 240.495C1416.29 241.879 1414.42 243.059 1411.9 244.035C1409.46 245.012 1406.08 245.5 1401.77 245.5C1397.45 245.5 1394.04 244.971 1391.51 243.913C1389.07 242.937 1387.2 241.716 1385.9 240.251C1384.6 238.868 1383.78 237.443 1383.46 235.979C1383.13 234.595 1382.97 233.456 1382.97 232.561V77.7754ZM1420.44 155.534C1420.44 156.185 1420.73 157.325 1421.3 158.952C1421.87 160.58 1422.76 162.248 1423.98 163.957C1425.2 165.666 1426.75 167.212 1428.62 168.596C1430.58 169.898 1432.94 170.549 1435.7 170.549C1439.28 170.549 1442.33 169.206 1444.86 166.521C1447.38 163.754 1449.46 160.051 1451.08 155.412C1452.71 150.692 1453.89 145.24 1454.62 139.055C1455.36 132.788 1455.72 126.115 1455.72 119.035C1455.72 110.327 1455.23 102.963 1454.26 96.9404C1453.36 90.9183 1452.02 86.0762 1450.23 82.4141C1448.44 78.6706 1446.28 75.985 1443.76 74.3574C1441.32 72.6484 1438.55 71.7939 1435.46 71.7939C1433.67 71.7939 1431.88 72.3229 1430.09 73.3809C1428.3 74.3574 1426.67 75.6188 1425.2 77.165C1423.82 78.6299 1422.68 80.2982 1421.79 82.1699C1420.89 84.0417 1420.44 85.832 1420.44 87.541V155.534ZM1556.8 66.7891V156.999C1556.8 161.312 1557.61 164.323 1559.24 166.032C1560.86 167.66 1563.1 168.474 1565.95 168.474C1568.15 168.474 1570.1 167.863 1571.81 166.643C1573.52 165.422 1574.98 164.038 1576.21 162.492C1577.67 160.783 1578.93 158.789 1579.99 156.511L1583.77 158.22C1582.55 160.824 1581.09 163.672 1579.38 166.765C1577.75 169.857 1575.55 172.746 1572.79 175.432C1570.02 178.036 1566.52 180.233 1562.29 182.023C1558.14 183.814 1552.89 184.709 1546.54 184.709C1542.96 184.709 1539.5 184.18 1536.17 183.122C1532.91 182.064 1529.98 180.396 1527.38 178.117C1524.85 175.839 1522.82 172.99 1521.27 169.572C1519.73 166.154 1518.95 162.045 1518.95 157.243V66.7891H1505.28V58C1507.56 58 1510.73 57.4303 1514.8 56.291C1518.87 55.0703 1523.02 53.0765 1527.25 50.3096C1531.57 47.5426 1535.56 43.8398 1539.22 39.2012C1542.88 34.5625 1545.48 28.8252 1547.03 21.9893H1556.8V58H1576.69C1583.2 58 1586.46 56.9014 1586.46 54.7041C1586.46 53.8903 1586.05 53.3613 1585.24 53.1172C1584.42 52.7917 1583.49 52.4255 1582.43 52.0186C1581.45 51.5303 1580.56 50.8792 1579.75 50.0654C1578.93 49.2516 1578.52 47.9089 1578.52 46.0371C1578.52 43.7585 1579.22 41.9681 1580.6 40.666C1582.06 39.3639 1583.94 38.7129 1586.21 38.7129C1587.68 38.7129 1588.94 39.0384 1590 39.6895C1591.14 40.2591 1592.07 41.0729 1592.81 42.1309C1593.54 43.1074 1594.07 44.2467 1594.39 45.5488C1594.8 46.8509 1595 48.153 1595 49.4551C1595 54.7448 1593.46 58.9766 1590.37 62.1504C1587.35 65.2428 1582.47 66.7891 1575.72 66.7891H1556.8ZM1642.86 172.014C1642.86 173.072 1642.65 174.374 1642.25 175.92C1641.92 177.385 1641.07 178.809 1639.68 180.192C1638.38 181.494 1636.47 182.593 1633.94 183.488C1631.42 184.465 1628 184.953 1623.69 184.953C1619.38 184.953 1616 184.424 1613.56 183.366C1611.12 182.39 1609.29 181.21 1608.07 179.826C1606.84 178.443 1606.07 177.019 1605.75 175.554C1605.5 174.089 1605.38 172.909 1605.38 172.014V77.7754C1605.38 75.4154 1604.81 73.3809 1603.67 71.6719C1602.61 69.8815 1600.78 68.9863 1598.18 68.9863C1596.79 68.9863 1595.61 69.2305 1594.64 69.7188C1593.66 70.207 1592.6 70.8988 1591.46 71.7939L1588.9 68.7422C1590.77 67.196 1592.85 65.6904 1595.13 64.2256C1597.49 62.6794 1600.01 61.3366 1602.69 60.1973C1605.38 59.0579 1608.27 58.1221 1611.36 57.3896C1614.45 56.6572 1617.71 56.291 1621.13 56.291C1626.42 56.291 1630.53 57.0234 1633.46 58.4883C1636.39 59.8717 1638.54 61.6214 1639.93 63.7373C1641.31 65.7718 1642.12 67.9691 1642.37 70.3291C1642.69 72.6891 1642.86 74.7643 1642.86 76.5547V172.014ZM1601.6 28.459C1601.6 26.1803 1602.08 24.0238 1603.06 21.9893C1604.12 19.8734 1605.54 18.0423 1607.33 16.4961C1609.2 14.9499 1611.32 13.7292 1613.68 12.834C1616.12 11.9388 1618.77 11.4912 1621.62 11.4912C1624.38 11.4912 1626.95 11.9388 1629.31 12.834C1631.75 13.7292 1633.86 14.9499 1635.65 16.4961C1637.44 18.0423 1638.83 19.8734 1639.8 21.9893C1640.86 24.0238 1641.39 26.1803 1641.39 28.459C1641.39 30.819 1640.86 33.0163 1639.8 35.0508C1638.83 37.0853 1637.44 38.8757 1635.65 40.4219C1633.86 41.8867 1631.75 43.0667 1629.31 43.9619C1626.95 44.8571 1624.38 45.3047 1621.62 45.3047C1618.77 45.3047 1616.12 44.8571 1613.68 43.9619C1611.32 43.0667 1609.2 41.8867 1607.33 40.4219C1605.54 38.8757 1604.12 37.0853 1603.06 35.0508C1602.08 33.0163 1601.6 30.819 1601.6 28.459ZM1665.93 120.5C1665.93 109.839 1667.47 100.521 1670.57 92.5459C1673.66 84.4893 1677.77 77.7754 1682.89 72.4043C1688.1 67.0332 1694.12 63.0049 1700.96 60.3193C1707.8 57.6338 1714.96 56.291 1722.45 56.291C1729.93 56.291 1737.09 57.5524 1743.93 60.0752C1750.77 62.5166 1756.75 66.3008 1761.87 71.4277C1767.08 76.5547 1771.23 83.0651 1774.33 90.959C1777.42 98.7715 1778.96 108.049 1778.96 118.791C1778.96 129.452 1777.42 138.892 1774.33 147.111C1771.23 155.331 1767.08 162.248 1761.87 167.863C1756.75 173.479 1750.77 177.751 1743.93 180.681C1737.09 183.529 1729.93 184.953 1722.45 184.953C1714.96 184.953 1707.8 183.61 1700.96 180.925C1694.12 178.158 1688.1 174.089 1682.89 168.718C1677.77 163.347 1673.66 156.633 1670.57 148.576C1667.47 140.52 1665.93 131.161 1665.93 120.5ZM1741 119.279C1741 112.769 1740.76 106.503 1740.27 100.48C1739.86 94.377 1739.01 88.9652 1737.7 84.2451C1736.4 79.5251 1734.53 75.7816 1732.09 73.0146C1729.65 70.1663 1726.43 68.7422 1722.45 68.7422C1718.46 68.7422 1715.24 70.2477 1712.8 73.2588C1710.36 76.1885 1708.49 80.0947 1707.19 84.9775C1705.88 89.779 1705.03 95.2721 1704.62 101.457C1704.22 107.642 1704.01 113.99 1704.01 120.5C1704.01 127.01 1704.22 133.399 1704.62 139.665C1705.03 145.85 1705.88 151.384 1707.19 156.267C1708.49 161.149 1710.36 165.096 1712.8 168.107C1715.24 171.037 1718.46 172.502 1722.45 172.502C1726.43 172.502 1729.65 170.956 1732.09 167.863C1734.53 164.771 1736.4 160.702 1737.7 155.656C1739.01 150.611 1739.86 144.914 1740.27 138.566C1740.76 132.219 1741 125.79 1741 119.279ZM1873.69 122.209C1873.69 111.955 1873.2 103.776 1872.23 97.6729C1871.33 91.488 1870.11 86.8086 1868.56 83.6348C1867.02 80.3796 1865.31 78.2637 1863.44 77.2871C1861.56 76.2292 1859.65 75.7002 1857.7 75.7002C1855.34 75.7002 1853.22 76.3512 1851.35 77.6533C1849.56 78.874 1847.97 80.2982 1846.59 81.9258C1845.29 83.5534 1844.15 85.181 1843.17 86.8086C1842.28 88.4362 1841.5 89.6569 1840.85 90.4707V172.014C1840.85 173.072 1840.69 174.374 1840.37 175.92C1840.04 177.385 1839.23 178.809 1837.92 180.192C1836.7 181.494 1834.83 182.593 1832.31 183.488C1829.87 184.465 1826.49 184.953 1822.18 184.953C1817.86 184.953 1814.45 184.424 1811.92 183.366C1809.48 182.39 1807.61 181.21 1806.31 179.826C1805.01 178.443 1804.19 177.019 1803.87 175.554C1803.54 174.089 1803.38 172.909 1803.38 172.014V77.7754C1803.38 75.4154 1802.81 73.3809 1801.67 71.6719C1800.61 69.8815 1798.78 68.9863 1796.18 68.9863C1794.79 68.9863 1793.61 69.2305 1792.64 69.7188C1791.66 70.207 1790.6 70.8988 1789.46 71.7939L1786.9 68.7422C1788.77 67.196 1790.85 65.6904 1793.12 64.2256C1795.48 62.6794 1798.01 61.3366 1800.69 60.1973C1803.38 59.0579 1806.27 58.1221 1809.36 57.3896C1812.45 56.6572 1815.71 56.291 1819.12 56.291C1824.41 56.291 1828.52 57.1862 1831.45 58.9766C1834.38 60.6855 1836.54 62.7607 1837.92 65.2021C1839.31 67.6436 1840.12 70.207 1840.37 72.8926C1840.69 75.4967 1840.85 77.694 1840.85 79.4844C1843.86 75.1712 1847.28 71.3057 1851.11 67.8877C1852.65 66.4229 1854.36 64.9987 1856.23 63.6152C1858.19 62.2318 1860.22 61.0111 1862.34 59.9531C1864.54 58.8138 1866.81 57.9186 1869.17 57.2676C1871.62 56.6165 1874.1 56.291 1876.62 56.291C1882.15 56.291 1887.04 57.349 1891.27 59.4648C1895.58 61.5807 1899.2 65.1208 1902.13 70.085C1905.06 75.0492 1907.3 81.641 1908.85 89.8604C1910.39 97.9984 1911.17 108.13 1911.17 120.256C1911.17 132.056 1910.11 142.31 1907.99 151.018C1905.88 159.725 1903.11 167.131 1899.69 173.234C1896.27 179.338 1892.41 184.302 1888.09 188.127C1883.78 192.033 1879.43 195.085 1875.03 197.282C1870.64 199.479 1866.41 200.985 1862.34 201.799C1858.35 202.694 1854.89 203.182 1851.96 203.264L1850.62 198.259C1853.06 197.689 1855.3 196.794 1857.33 195.573C1859.45 194.353 1861.36 192.562 1863.07 190.202C1864.78 187.842 1866.28 184.872 1867.59 181.291C1868.89 177.629 1869.99 173.072 1870.88 167.619C1871.86 162.167 1872.55 155.738 1872.96 148.332C1873.45 140.845 1873.69 132.137 1873.69 122.209ZM2037.02 21.9893C2037.02 19.3851 2036.04 17.4727 2034.09 16.252C2032.22 14.9499 2030.14 14.2988 2027.87 14.2988C2023.31 14.2988 2018.87 14.9906 2014.56 16.374C2010.25 17.6761 2006.38 19.5072 2002.96 21.8672C1999.54 24.1458 1996.78 26.9128 1994.66 30.168C1992.63 33.3418 1991.61 36.8005 1991.61 40.5439C1991.61 43.1481 1991.94 45.2233 1992.59 46.7695C1993.32 48.3158 1994.13 49.4958 1995.03 50.3096C1995.92 51.042 1996.82 51.5303 1997.71 51.7744C1998.69 51.9372 1999.38 52.0186 1999.79 52.0186C2001.82 52.0186 2003.49 51.693 2004.79 51.042C2006.1 50.3096 2007.28 49.5771 2008.33 48.8447C2009.39 48.0309 2010.37 47.2985 2011.26 46.6475C2012.24 45.915 2013.34 45.5488 2014.56 45.5488C2015.54 45.5488 2016.55 45.793 2017.61 46.2812C2018.75 46.6882 2019.77 47.3799 2020.66 48.3564C2021.64 49.333 2022.45 50.6351 2023.1 52.2627C2023.76 53.8089 2024.08 55.7214 2024.08 58C2024.08 61.2552 2023.43 64.0628 2022.13 66.4229C2020.91 68.7829 2019.28 70.7767 2017.25 72.4043C2015.29 73.9505 2013.01 75.1305 2010.41 75.9443C2007.89 76.6768 2005.36 77.043 2002.84 77.043C1998.93 77.043 1995.39 76.3919 1992.22 75.0898C1989.13 73.7064 1986.48 71.8346 1984.29 69.4746C1982.09 67.1146 1980.42 64.3477 1979.28 61.1738C1978.14 58 1977.57 54.6227 1977.57 51.042C1977.57 40.8695 1980.14 32.528 1985.26 26.0176C1990.39 19.4258 1997.35 14.2581 2006.14 10.5146C2015.01 6.68978 2025.3 4.08561 2037.02 2.70215C2048.82 1.2373 2061.35 0.504883 2074.62 0.504883C2089.75 0.504883 2103.43 2.05111 2115.63 5.14355C2127.92 8.15462 2138.42 13.0781 2147.13 19.9141C2155.84 26.75 2162.55 35.7018 2167.27 46.7695C2171.99 57.7559 2174.35 71.1836 2174.35 87.0527C2174.35 102.922 2171.83 117.001 2166.78 129.289C2161.82 141.577 2154.98 151.913 2146.27 160.295C2137.65 168.596 2127.47 174.943 2115.76 179.338C2104.12 183.651 2091.63 185.808 2078.28 185.808C2069.41 185.808 2062.25 185.36 2056.8 184.465C2051.42 183.651 2047.27 182.227 2044.34 180.192C2041.42 178.076 2039.46 175.31 2038.49 171.892C2037.51 168.392 2037.02 163.998 2037.02 158.708V21.9893ZM2077.3 159.807C2077.3 164.445 2078.32 167.782 2080.36 169.816C2082.47 171.77 2085.56 172.746 2089.63 172.746C2095.74 172.746 2101.35 171.403 2106.48 168.718C2111.69 166.032 2116.16 161.434 2119.91 154.924C2123.65 148.332 2126.58 139.584 2128.7 128.679C2130.81 117.774 2131.87 104.061 2131.87 87.541C2131.87 76.4733 2131.18 66.9111 2129.79 58.8545C2128.49 50.7165 2126.74 43.8398 2124.54 38.2246C2122.35 32.528 2119.82 27.93 2116.98 24.4307C2114.21 20.8499 2111.36 18.083 2108.43 16.1299C2105.5 14.0954 2102.61 12.7526 2099.76 12.1016C2097 11.3691 2094.52 11.0029 2092.32 11.0029C2087.03 11.0029 2083.2 12.1829 2080.84 14.543C2078.48 16.903 2077.3 21.1348 2077.3 27.2383V159.807ZM2231.11 126.97C2231.11 129.574 2231.48 132.422 2232.21 135.515C2233.02 138.526 2234.16 141.577 2235.63 144.67C2237.09 147.762 2238.88 150.733 2241 153.581C2243.2 156.348 2245.68 158.83 2248.45 161.027C2251.29 163.225 2254.43 164.974 2257.85 166.276C2261.26 167.578 2265.01 168.229 2269.08 168.229C2271.92 168.229 2274.57 167.904 2277.01 167.253C2279.45 166.602 2281.73 165.707 2283.85 164.567C2285.96 163.428 2288 162.126 2289.95 160.661C2291.9 159.115 2293.86 157.487 2295.81 155.778L2298.86 158.708C2296.99 161.231 2294.59 163.998 2291.66 167.009C2288.73 170.02 2285.19 172.868 2281.04 175.554C2276.89 178.158 2272.05 180.355 2266.51 182.146C2260.98 183.854 2254.67 184.709 2247.59 184.709C2240.51 184.709 2233.59 183.448 2226.84 180.925C2220.17 178.321 2214.23 174.455 2209.02 169.328C2203.81 164.201 2199.62 157.813 2196.44 150.163C2193.35 142.513 2191.81 133.562 2191.81 123.308C2191.81 115.902 2192.74 109.107 2194.61 102.922C2196.49 96.737 2199.01 91.1624 2202.18 86.1982C2205.44 81.234 2209.18 76.8802 2213.41 73.1367C2217.73 69.3932 2222.24 66.3008 2226.96 63.8594C2231.68 61.3366 2236.48 59.4648 2241.37 58.2441C2246.33 56.9421 2251.09 56.291 2255.65 56.291C2261.67 56.291 2266.92 56.9421 2271.4 58.2441C2275.87 59.5462 2279.57 61.2959 2282.5 63.4932C2285.51 65.6904 2287.75 68.2539 2289.22 71.1836C2290.68 74.0319 2291.42 77.043 2291.42 80.2168C2291.42 84.0417 2290.32 87.5003 2288.12 90.5928C2285.92 93.6038 2282.99 96.2487 2279.33 98.5273L2231.11 126.97ZM2255.65 102.189C2256.71 101.538 2257.56 100.928 2258.21 100.358C2258.94 99.7074 2259.51 98.9749 2259.92 98.1611C2260.33 97.266 2260.61 96.208 2260.78 94.9873C2261.02 93.6852 2261.14 92.0983 2261.14 90.2266C2261.14 88.1921 2260.9 85.9541 2260.41 83.5127C2260 80.9899 2259.27 78.6299 2258.21 76.4326C2257.15 74.2354 2255.81 72.4043 2254.18 70.9395C2252.56 69.4746 2250.6 68.7422 2248.32 68.7422C2245.39 68.7422 2242.87 69.6374 2240.76 71.4277C2238.72 73.1367 2237.01 75.3747 2235.63 78.1416C2234.33 80.9085 2233.27 84.0824 2232.46 87.6631C2231.72 91.1624 2231.15 94.7025 2230.75 98.2832C2230.34 101.864 2230.1 105.323 2230.01 108.659C2229.93 111.914 2229.89 114.681 2229.89 116.96L2255.65 102.189ZM2312.04 79.2402C2311.56 75.985 2310.74 73.4622 2309.6 71.6719C2308.55 69.8815 2306.71 68.9863 2304.11 68.9863C2302.73 68.9863 2301.51 69.2305 2300.45 69.7188C2299.47 70.207 2298.41 70.8988 2297.27 71.7939L2294.83 68.7422C2296.7 67.196 2298.78 65.6904 2301.06 64.2256C2303.42 62.6794 2305.94 61.3366 2308.63 60.1973C2311.31 59.0579 2314.2 58.1221 2317.29 57.3896C2320.39 56.6572 2323.64 56.291 2327.06 56.291C2331.94 56.291 2335.89 57.1455 2338.9 58.8545C2341.91 60.4821 2344.27 62.5573 2345.98 65.0801C2347.77 67.5215 2349.03 70.1663 2349.76 73.0146C2350.5 75.863 2351.03 78.4264 2351.35 80.7051C2354.36 105.363 2357.74 124.04 2361.48 136.735C2365.23 149.431 2369.66 155.778 2374.79 155.778C2377.64 155.778 2380.36 154.232 2382.97 151.14C2385.65 148.047 2387.97 143.815 2389.93 138.444C2391.96 133.073 2393.59 126.807 2394.81 119.646C2396.03 112.484 2396.64 104.834 2396.64 96.6963C2396.64 91.3252 2396.27 86.8086 2395.54 83.1465C2394.81 79.403 2393.99 76.2699 2393.1 73.7471C2392.2 71.2243 2391.39 69.1491 2390.66 67.5215C2389.93 65.8125 2389.56 64.307 2389.56 63.0049C2389.56 61.7842 2390.05 60.7669 2391.02 59.9531C2392 59.1393 2393.14 58.4476 2394.44 57.8779C2395.83 57.3083 2397.21 56.9014 2398.59 56.6572C2400.06 56.4131 2401.24 56.291 2402.13 56.291C2404.49 56.291 2406.2 56.6165 2407.26 57.2676C2408.32 57.9186 2409.17 59.18 2409.82 61.0518C2410.56 63.4118 2411.04 66.5449 2411.29 70.4512C2411.61 74.276 2411.78 78.3857 2411.78 82.7803C2411.78 89.0465 2411.33 95.9232 2410.43 103.41C2409.62 110.897 2408.32 118.425 2406.53 125.993C2404.82 133.562 2402.62 140.886 2399.94 147.966C2397.25 155.046 2394.04 161.353 2390.29 166.887C2386.63 172.339 2382.44 176.734 2377.72 180.07C2373.08 183.326 2367.87 184.953 2362.09 184.953C2355.34 184.953 2349.48 183 2344.52 179.094C2339.55 175.188 2335.32 170.101 2331.82 163.835C2328.4 157.569 2325.55 150.529 2323.28 142.717C2321 134.904 2319.12 127.092 2317.66 119.279C2316.28 111.385 2315.14 103.939 2314.24 96.9404C2313.43 89.8604 2312.7 83.9603 2312.04 79.2402Z" fill="white"/>
<defs>
<clipPath id="clip0">
<rect width="300" height="300" fill="white" transform="translate(348 195)"/>
</clipPath>
</defs>
</svg>
